<svg width="24" height="24" viewBox="0 0 24 24" fill="none" xmlns="http://www.w3.org/2000/svg">
<path d="M10.4773 12.2524L0.941238 7.33286C0.512341 7.11159 0 7.42078 0 7.90087V17.8746C0 18.3094 0.242006 18.7085 0.628883 18.9118L10.1685 23.9248C10.5976 24.1503 11.1141 23.8413 11.1141 23.3591V13.2938C11.1141 12.8558 10.8686 12.4543 10.4773 12.2524Z" fill="white"/>
<path d="M13.5227 12.2524L23.0588 7.33286C23.4877 7.11159 24 7.42078 24 7.90087V17.8746C24 18.3094 23.758 18.7085 23.3711 18.9118L13.8315 23.9248C13.4024 24.1503 12.8859 23.8413 12.8859 23.3591V13.2938C12.8859 12.8558 13.1314 12.4543 13.5227 12.2524Z" fill="white"/>
<path d="M1.22851 5.72742L11.2977 11.0123C11.7371 11.2429 12.2629 11.2429 12.7023 11.0123L22.7715 5.72742C23.206 5.49937 23.1864 4.87468 22.7385 4.67389L12.5963 0.127454C12.2172 -0.0424847 11.7828 -0.0424849 11.4037 0.127454L1.26149 4.67389C0.813566 4.87468 0.79401 5.49937 1.22851 5.72742Z" fill="white"/>
</svg>
