<svg width="79" height="13" viewBox="0 0 79 13" fill="none" xmlns="http://www.w3.org/2000/svg">
<path d="M5.8904 12.679C4.77742 12.679 3.76943 12.4304 2.86645 11.9332C1.97397 11.4252 1.27048 10.728 0.755988 9.84164C0.251997 8.95529 0 7.95546 0 6.84213C0 5.72879 0.257242 4.72896 0.771733 3.84262C1.28622 2.95627 1.98972 2.26449 2.8822 1.76728C3.78518 1.25925 4.79317 1.00524 5.90615 1.00524C6.80913 1.00524 7.63336 1.16738 8.37885 1.49165C9.12434 1.81592 9.75433 2.28611 10.2688 2.90223L8.94584 4.1831C8.14786 3.29676 7.16612 2.85359 6.00064 2.85359C5.24466 2.85359 4.56742 3.02653 3.96893 3.37242C3.37044 3.7075 2.9032 4.1777 2.5672 4.783C2.23121 5.38831 2.06321 6.07468 2.06321 6.84213C2.06321 7.60957 2.23121 8.29594 2.5672 8.90125C2.9032 9.50656 3.37044 9.98216 3.96893 10.328C4.56742 10.6631 5.24466 10.8307 6.00064 10.8307C7.16612 10.8307 8.14786 10.3821 8.94584 9.48494L10.2688 10.782C9.75433 11.3981 9.11909 11.8683 8.3631 12.1926C7.61761 12.5169 6.79338 12.679 5.8904 12.679Z" fill="white"/>
<path d="M19.9535 3.85883V12.5169H18.0793V11.4144C17.7643 11.8035 17.3706 12.1061 16.8981 12.3223C16.4256 12.5277 15.9164 12.6304 15.3704 12.6304C14.2469 12.6304 13.3597 12.3115 12.7087 11.6738C12.0682 11.0252 11.7479 10.0686 11.7479 8.80397V3.85883H13.7167V8.52834C13.7167 9.30659 13.8847 9.89028 14.2206 10.2794C14.5671 10.6577 15.0554 10.8469 15.6854 10.8469C16.3889 10.8469 16.9453 10.6253 17.3548 10.1821C17.7748 9.72814 17.9848 9.0796 17.9848 8.23649V3.85883H19.9535Z" fill="white"/>
<path d="M27.1931 3.76155C28.0121 3.76155 28.7418 3.9453 29.3823 4.31281C30.0333 4.68032 30.5426 5.19915 30.9101 5.86931C31.2776 6.53947 31.4613 7.31232 31.4613 8.18785C31.4613 9.06339 31.2776 9.84164 30.9101 10.5226C30.5426 11.1928 30.0333 11.7116 29.3823 12.0791C28.7418 12.4466 28.0121 12.6304 27.1931 12.6304C26.6156 12.6304 26.0854 12.5277 25.6024 12.3223C25.1299 12.1169 24.7309 11.8089 24.4054 11.3981V12.5169H22.5312V0.486407H24.4999V4.91271C24.8359 4.5344 25.2297 4.24795 25.6812 4.05339C26.1431 3.85883 26.6471 3.76155 27.1931 3.76155ZM26.9726 10.8955C27.6971 10.8955 28.2904 10.6469 28.7524 10.1497C29.2248 9.65248 29.4611 8.99853 29.4611 8.18785C29.4611 7.37717 29.2248 6.72323 28.7524 6.22601C28.2904 5.72879 27.6971 5.48019 26.9726 5.48019C26.5001 5.48019 26.0749 5.59368 25.6969 5.82067C25.3189 6.03685 25.0197 6.35032 24.7992 6.76106C24.5787 7.1718 24.4684 7.6474 24.4684 8.18785C24.4684 8.72831 24.5787 9.2039 24.7992 9.61465C25.0197 10.0254 25.3189 10.3443 25.6969 10.5712C26.0749 10.7874 26.5001 10.8955 26.9726 10.8955Z" fill="white"/>
<path d="M41.2347 8.23649C41.2347 8.37701 41.2243 8.57698 41.2033 8.8364H34.6041C34.7196 9.47413 35.0189 9.98216 35.5019 10.3605C35.9953 10.728 36.6043 10.9117 37.3288 10.9117C38.2528 10.9117 39.014 10.5983 39.6125 9.97135L40.6678 11.2198C40.2898 11.6846 39.812 12.0359 39.2345 12.2737C38.657 12.5115 38.0061 12.6304 37.2816 12.6304C36.3576 12.6304 35.5438 12.4412 34.8404 12.0629C34.1369 11.6846 33.5909 11.1603 33.2024 10.4902C32.8244 9.80921 32.6354 9.04177 32.6354 8.18785C32.6354 7.34475 32.8191 6.58811 33.1866 5.91795C33.5646 5.23698 34.0844 4.70734 34.7459 4.32902C35.4073 3.95071 36.1528 3.76155 36.9823 3.76155C37.8013 3.76155 38.531 3.95071 39.1715 4.32902C39.8225 4.69653 40.3265 5.22077 40.6835 5.90174C41.051 6.5719 41.2347 7.35015 41.2347 8.23649ZM36.9823 5.3829C36.3523 5.3829 35.8168 5.57747 35.3759 5.96659C34.9454 6.34491 34.6829 6.85294 34.5884 7.49067H39.3605C39.2765 6.86374 39.0193 6.35572 38.5888 5.96659C38.1583 5.57747 37.6228 5.3829 36.9823 5.3829Z" fill="white"/>
<path d="M45 5.12349C45.567 4.21553 46.5645 3.76155 47.9925 3.76155V5.69096C47.8245 5.65854 47.6722 5.64232 47.5357 5.64232C46.7693 5.64232 46.1708 5.87472 45.7403 6.33951C45.3098 6.79349 45.0945 7.45284 45.0945 8.31756V12.5169H43.1258V3.85883H45V5.12349Z" fill="white"/>
<path d="M49.6626 3.85883H51.6313V12.5169H49.6626V3.85883ZM50.6548 2.43204C50.2978 2.43204 49.9986 2.31854 49.7571 2.09155C49.5156 1.85375 49.3948 1.56191 49.3948 1.21602C49.3948 0.870128 49.5156 0.583688 49.7571 0.356698C49.9986 0.118899 50.2978 0 50.6548 0C51.0118 0 51.311 0.113494 51.5525 0.340484C51.794 0.556665 51.9148 0.832296 51.9148 1.16738C51.9148 1.52407 51.794 1.82673 51.5525 2.07534C51.3215 2.31314 51.0223 2.43204 50.6548 2.43204Z" fill="white"/>
<path d="M62.3578 3.85883V12.5169H60.4836V11.4144C60.1686 11.8035 59.7749 12.1061 59.3024 12.3223C58.8299 12.5277 58.3207 12.6304 57.7747 12.6304C56.6512 12.6304 55.764 12.3115 55.113 11.6738C54.4725 11.0252 54.1522 10.0686 54.1522 8.80397V3.85883H56.1209V8.52834C56.1209 9.30659 56.2889 9.89028 56.6249 10.2794C56.9714 10.6577 57.4597 10.8469 58.0897 10.8469C58.7931 10.8469 59.3496 10.6253 59.7591 10.1821C60.1791 9.72814 60.3891 9.0796 60.3891 8.23649V3.85883H62.3578Z" fill="white"/>
<path d="M75.5508 3.76155C76.6113 3.76155 77.4513 4.08042 78.0708 4.71815C78.6902 5.34507 79 6.29086 79 7.55552V12.5169H77.0313V7.81494C77.0313 7.05831 76.8685 6.49083 76.5431 6.11252C76.2176 5.72339 75.7503 5.52883 75.1413 5.52883C74.4798 5.52883 73.9496 5.75582 73.5506 6.2098C73.1516 6.65297 72.9521 7.2907 72.9521 8.123V12.5169H70.9834V7.81494C70.9834 7.05831 70.8206 6.49083 70.4952 6.11252C70.1697 5.72339 69.7024 5.52883 69.0934 5.52883C68.4214 5.52883 67.8859 5.75041 67.487 6.19358C67.0985 6.63675 66.9042 7.27989 66.9042 8.123V12.5169H64.9355V3.85883H66.8097V4.96135C67.1247 4.57223 67.5184 4.27498 67.9909 4.06961C68.4634 3.86423 68.9884 3.76155 69.5659 3.76155C70.1959 3.76155 70.7524 3.88585 71.2354 4.13446C71.7289 4.37226 72.1174 4.72896 72.4009 5.20456C72.7474 4.75058 73.1936 4.39928 73.7396 4.15067C74.2856 3.89126 74.8893 3.76155 75.5508 3.76155Z" fill="white"/>
</svg>
